<?xml version="1.0" encoding="utf-8"?>
<!-- Generator: Adobe Illustrator 26.0.0, SVG Export Plug-In . SVG Version: 6.00 Build 0)  -->
<svg version="1.1" id="레이어_1" xmlns="http://www.w3.org/2000/svg" xmlns:xlink="http://www.w3.org/1999/xlink" x="0px"
	 y="0px" viewBox="0 0 20 20" style="enable-background:new 0 0 20 20;" xml:space="preserve">
<path d="M16.7,15.8l-4.5-4.5c0.6-0.8,1-1.9,1-3c0-2.8-2.3-5-5-5s-5,2.3-5,5c0,2.8,2.3,5,5,5c1.3,0,2.4-0.5,3.3-1.3l4.4,4.4
	L16.7,15.8z M8.2,12.4c-2.2,0-4-1.8-4-4s1.8-4,4-4c2.2,0,4,1.8,4,4S10.4,12.4,8.2,12.4z"/>
</svg>
